<svg width="1200" height="760" viewBox="0 0 1200 760" fill="none" xmlns="http://www.w3.org/2000/svg">
  <rect width="1200" height="760" rx="32" fill="#020617"/>
  <rect x="24" y="24" width="1152" height="712" rx="24" fill="url(#bg)"/>
  <circle cx="1008" cy="132" r="176" fill="#2563EB" fill-opacity="0.28"/>
  <circle cx="164" cy="680" r="252" fill="#38BDF8" fill-opacity="0.12"/>
  <rect x="90" y="102" width="1020" height="556" rx="22" fill="#0B1220" stroke="#334155"/>
  <rect x="128" y="140" width="250" height="24" rx="12" fill="#334155"/>
  <rect x="916" y="136" width="162" height="34" rx="17" fill="#1D4ED8"/>
  <rect x="128" y="206" width="596" height="416" rx="18" fill="#0F172A" stroke="#334155"/>
  <rect x="756" y="206" width="322" height="196" rx="18" fill="#0F172A" stroke="#334155"/>
  <rect x="756" y="426" width="322" height="196" rx="18" fill="#0F172A" stroke="#334155"/>
  <rect x="160" y="242" width="80" height="80" rx="12" fill="#1E3A8A"/>
  <rect x="260" y="242" width="80" height="80" rx="12" fill="#1D4ED8"/>
  <rect x="360" y="242" width="80" height="80" rx="12" fill="#2563EB"/>
  <rect x="460" y="242" width="80" height="80" rx="12" fill="#38BDF8"/>
  <rect x="560" y="242" width="80" height="80" rx="12" fill="#1E40AF"/>
  <rect x="160" y="350" width="480" height="18" rx="9" fill="#334155"/>
  <rect x="160" y="386" width="420" height="18" rx="9" fill="#334155"/>
  <rect x="160" y="422" width="340" height="18" rx="9" fill="#1D4ED8"/>
  <rect x="792" y="246" width="250" height="16" rx="8" fill="#334155"/>
  <rect x="792" y="280" width="210" height="16" rx="8" fill="#334155"/>
  <rect x="792" y="314" width="136" height="16" rx="8" fill="#1D4ED8"/>
  <rect x="792" y="466" width="250" height="16" rx="8" fill="#334155"/>
  <rect x="792" y="500" width="210" height="16" rx="8" fill="#334155"/>
  <rect x="792" y="534" width="136" height="16" rx="8" fill="#1D4ED8"/>
  <text x="90" y="82" fill="#93C5FD" font-family="Arial, sans-serif" font-size="34" font-weight="700">Atlas Booking</text>
  <defs>
    <linearGradient id="bg" x1="68" y1="44" x2="1104" y2="720" gradientUnits="userSpaceOnUse">
      <stop stop-color="#0B1220"/>
      <stop offset="1" stop-color="#020617"/>
    </linearGradient>
  </defs>
</svg>
