<svg width="1200" height="760" viewBox="0 0 1200 760" fill="none" xmlns="http://www.w3.org/2000/svg">
  <rect width="1200" height="760" rx="32" fill="#020617"/>
  <rect x="24" y="24" width="1152" height="712" rx="24" fill="url(#bg)"/>
  <circle cx="1028" cy="148" r="178" fill="#1D4ED8" fill-opacity="0.3"/>
  <circle cx="178" cy="665" r="240" fill="#38BDF8" fill-opacity="0.14"/>
  <rect x="92" y="104" width="1016" height="552" rx="22" fill="#0B1220" stroke="#334155"/>
  <rect x="128" y="142" width="280" height="26" rx="13" fill="#334155"/>
  <rect x="900" y="138" width="176" height="34" rx="17" fill="#2563EB"/>
  <rect x="128" y="214" width="356" height="392" rx="20" fill="#0F172A" stroke="#334155"/>
  <rect x="516" y="214" width="560" height="186" rx="20" fill="#0F172A" stroke="#334155"/>
  <rect x="516" y="420" width="270" height="186" rx="20" fill="#0F172A" stroke="#334155"/>
  <rect x="806" y="420" width="270" height="186" rx="20" fill="#0F172A" stroke="#334155"/>
  <path d="M170 540L220 482L268 514L330 428L402 452" stroke="#60A5FA" stroke-width="8" stroke-linecap="round" stroke-linejoin="round"/>
  <rect x="548" y="256" width="490" height="14" rx="7" fill="#334155"/>
  <rect x="548" y="286" width="410" height="14" rx="7" fill="#334155"/>
  <rect x="548" y="316" width="334" height="14" rx="7" fill="#1D4ED8"/>
  <circle cx="608" cy="516" r="58" fill="#172554"/>
  <circle cx="898" cy="516" r="58" fill="#1E3A8A"/>
  <text x="92" y="82" fill="#93C5FD" font-family="Arial, sans-serif" font-size="34" font-weight="700">DeepMetrics</text>
  <defs>
    <linearGradient id="bg" x1="64" y1="40" x2="1112" y2="724" gradientUnits="userSpaceOnUse">
      <stop stop-color="#0B1220"/>
      <stop offset="1" stop-color="#020617"/>
    </linearGradient>
  </defs>
</svg>
