<svg width="1200" height="760" viewBox="0 0 1200 760" fill="none" xmlns="http://www.w3.org/2000/svg">
  <rect width="1200" height="760" rx="32" fill="#020617"/>
  <rect x="24" y="24" width="1152" height="712" rx="24" fill="url(#bg)"/>
  <circle cx="1010" cy="110" r="170" fill="#2563EB" fill-opacity="0.35"/>
  <circle cx="220" cy="710" r="260" fill="#38BDF8" fill-opacity="0.18"/>
  <rect x="96" y="120" width="1008" height="78" rx="14" fill="#0F172A" stroke="#334155"/>
  <rect x="132" y="148" width="220" height="22" rx="11" fill="#1E293B"/>
  <rect x="872" y="143" width="178" height="32" rx="16" fill="#1D4ED8"/>
  <rect x="96" y="236" width="312" height="420" rx="20" fill="#0B1220" stroke="#334155"/>
  <rect x="440" y="236" width="312" height="420" rx="20" fill="#0B1220" stroke="#334155"/>
  <rect x="784" y="236" width="312" height="420" rx="20" fill="#0B1220" stroke="#334155"/>
  <rect x="124" y="282" width="256" height="172" rx="14" fill="#172554"/>
  <rect x="468" y="282" width="256" height="172" rx="14" fill="#1E3A8A"/>
  <rect x="812" y="282" width="256" height="172" rx="14" fill="#1D4ED8"/>
  <rect x="124" y="488" width="180" height="20" rx="10" fill="#334155"/>
  <rect x="468" y="488" width="180" height="20" rx="10" fill="#334155"/>
  <rect x="812" y="488" width="180" height="20" rx="10" fill="#334155"/>
  <rect x="124" y="528" width="132" height="16" rx="8" fill="#1D4ED8"/>
  <rect x="468" y="528" width="132" height="16" rx="8" fill="#1D4ED8"/>
  <rect x="812" y="528" width="132" height="16" rx="8" fill="#1D4ED8"/>
  <text x="96" y="88" fill="#93C5FD" font-family="Arial, sans-serif" font-size="34" font-weight="700">Navy Commerce</text>
  <defs>
    <linearGradient id="bg" x1="78" y1="48" x2="1104" y2="718" gradientUnits="userSpaceOnUse">
      <stop stop-color="#0B1220"/>
      <stop offset="1" stop-color="#020617"/>
    </linearGradient>
  </defs>
</svg>
